<mxfile host="app.diagrams.net" modified="2022-09-15T20:50:01.176Z" agent="5.0 (Windows NT 10.0; Win64; x64) AppleWebKit/537.36 (KHTML, like Gecko) Chrome/105.0.0.0 Safari/537.36" etag="PN8f964JJjggVdwAnqIu" version="20.3.0" type="github">
  <diagram id="lKvCHFNU9bm0msQFGBpP" name="PÃ¡gina-1">
    <mxGraphModel dx="1422" dy="794" grid="1" gridSize="10" guides="1" tooltips="1" connect="1" arrows="1" fold="1" page="1" pageScale="1" pageWidth="827" pageHeight="1169" math="0" shadow="0">
      <root>
        <mxCell id="0" />
        <mxCell id="1" parent="0" />
        <mxCell id="mmtNbBhjfVSm-je3SZPT-9" value=": FifaWorldCup" style="shape=umlLifeline;perimeter=lifelinePerimeter;whiteSpace=wrap;html=1;container=1;collapsible=0;recursiveResize=0;outlineConnect=0;" vertex="1" parent="1">
          <mxGeometry x="90" y="220" width="100" height="300" as="geometry" />
        </mxCell>
        <mxCell id="mmtNbBhjfVSm-je3SZPT-32" value="[Para cada grupo ]" style="text;html=1;strokeColor=none;fillColor=none;align=center;verticalAlign=middle;whiteSpace=wrap;rounded=0;" vertex="1" parent="mmtNbBhjfVSm-je3SZPT-9">
          <mxGeometry x="-80" y="220" width="120" height="30" as="geometry" />
        </mxCell>
        <mxCell id="mmtNbBhjfVSm-je3SZPT-11" value="cargarPaises" style="html=1;verticalAlign=bottom;startArrow=oval;startFill=1;endArrow=block;startSize=8;rounded=0;" edge="1" parent="1" target="mmtNbBhjfVSm-je3SZPT-9">
          <mxGeometry x="-0.196" width="60" relative="1" as="geometry">
            <mxPoint x="40" y="280" as="sourcePoint" />
            <mxPoint x="100" y="280" as="targetPoint" />
            <mxPoint as="offset" />
          </mxGeometry>
        </mxCell>
        <mxCell id="mmtNbBhjfVSm-je3SZPT-13" value=": Estadio" style="shape=umlLifeline;perimeter=lifelinePerimeter;whiteSpace=wrap;html=1;container=1;collapsible=0;recursiveResize=0;outlineConnect=0;" vertex="1" parent="1">
          <mxGeometry x="205" y="220" width="100" height="460" as="geometry" />
        </mxCell>
        <mxCell id="mmtNbBhjfVSm-je3SZPT-18" value="" style="html=1;points=[];perimeter=orthogonalPerimeter;" vertex="1" parent="mmtNbBhjfVSm-je3SZPT-13">
          <mxGeometry x="45" y="110" width="10" height="30" as="geometry" />
        </mxCell>
        <mxCell id="mmtNbBhjfVSm-je3SZPT-16" value="" style="html=1;points=[];perimeter=orthogonalPerimeter;" vertex="1" parent="1">
          <mxGeometry x="135" y="290" width="10" height="370" as="geometry" />
        </mxCell>
        <mxCell id="mmtNbBhjfVSm-je3SZPT-17" value="cargarSedes" style="html=1;verticalAlign=bottom;startArrow=oval;startFill=1;endArrow=block;startSize=8;rounded=0;" edge="1" parent="1" target="mmtNbBhjfVSm-je3SZPT-13">
          <mxGeometry width="60" relative="1" as="geometry">
            <mxPoint x="150" y="329.5" as="sourcePoint" />
            <mxPoint x="210" y="330" as="targetPoint" />
          </mxGeometry>
        </mxCell>
        <mxCell id="mmtNbBhjfVSm-je3SZPT-20" value="" style="html=1;verticalAlign=bottom;endArrow=block;rounded=0;" edge="1" parent="1" target="mmtNbBhjfVSm-je3SZPT-16">
          <mxGeometry width="80" relative="1" as="geometry">
            <mxPoint x="260" y="360" as="sourcePoint" />
            <mxPoint x="180" y="360" as="targetPoint" />
          </mxGeometry>
        </mxCell>
        <mxCell id="mmtNbBhjfVSm-je3SZPT-21" value=": Grupo" style="shape=umlLifeline;perimeter=lifelinePerimeter;whiteSpace=wrap;html=1;container=1;collapsible=0;recursiveResize=0;outlineConnect=0;" vertex="1" parent="1">
          <mxGeometry x="330" y="220" width="100" height="460" as="geometry" />
        </mxCell>
        <mxCell id="mmtNbBhjfVSm-je3SZPT-22" value="Loop&amp;nbsp;" style="shape=umlFrame;whiteSpace=wrap;html=1;" vertex="1" parent="1">
          <mxGeometry x="10" y="400" width="410" height="110" as="geometry" />
        </mxCell>
        <mxCell id="mmtNbBhjfVSm-je3SZPT-24" value="" style="html=1;points=[];perimeter=orthogonalPerimeter;" vertex="1" parent="1">
          <mxGeometry x="375" y="420" width="10" height="30" as="geometry" />
        </mxCell>
        <mxCell id="mmtNbBhjfVSm-je3SZPT-25" value="generarGrupo" style="html=1;verticalAlign=bottom;startArrow=oval;startFill=1;endArrow=block;startSize=8;rounded=0;entryX=0;entryY=0.013;entryDx=0;entryDy=0;entryPerimeter=0;" edge="1" parent="1" target="mmtNbBhjfVSm-je3SZPT-24">
          <mxGeometry x="-0.5556" width="60" relative="1" as="geometry">
            <mxPoint x="150" y="421" as="sourcePoint" />
            <mxPoint x="220" y="420" as="targetPoint" />
            <mxPoint as="offset" />
          </mxGeometry>
        </mxCell>
        <mxCell id="mmtNbBhjfVSm-je3SZPT-27" value=": Grupo" style="html=1;verticalAlign=bottom;endArrow=open;dashed=1;endSize=8;rounded=0;" edge="1" parent="1">
          <mxGeometry x="-0.3333" y="1" relative="1" as="geometry">
            <mxPoint x="375" y="449" as="sourcePoint" />
            <mxPoint x="150" y="450" as="targetPoint" />
            <mxPoint as="offset" />
          </mxGeometry>
        </mxCell>
        <mxCell id="mmtNbBhjfVSm-je3SZPT-28" value=": PlayOff" style="shape=umlLifeline;perimeter=lifelinePerimeter;whiteSpace=wrap;html=1;container=1;collapsible=0;recursiveResize=0;outlineConnect=0;" vertex="1" parent="1">
          <mxGeometry x="460" y="220" width="100" height="450" as="geometry" />
        </mxCell>
        <mxCell id="mmtNbBhjfVSm-je3SZPT-30" value="" style="html=1;points=[];perimeter=orthogonalPerimeter;" vertex="1" parent="mmtNbBhjfVSm-je3SZPT-28">
          <mxGeometry x="45" y="310" width="10" height="50" as="geometry" />
        </mxCell>
        <mxCell id="mmtNbBhjfVSm-je3SZPT-31" value=": PlayOff" style="html=1;verticalAlign=bottom;endArrow=open;dashed=1;endSize=8;rounded=0;" edge="1" parent="mmtNbBhjfVSm-je3SZPT-28">
          <mxGeometry x="0.0286" relative="1" as="geometry">
            <mxPoint x="40" y="360" as="sourcePoint" />
            <mxPoint x="-310" y="360" as="targetPoint" />
            <mxPoint as="offset" />
          </mxGeometry>
        </mxCell>
        <mxCell id="mmtNbBhjfVSm-je3SZPT-29" value="generarPlayOff" style="html=1;verticalAlign=bottom;startArrow=oval;startFill=1;endArrow=block;startSize=8;rounded=0;" edge="1" parent="1" target="mmtNbBhjfVSm-je3SZPT-28">
          <mxGeometry width="60" relative="1" as="geometry">
            <mxPoint x="145" y="530" as="sourcePoint" />
            <mxPoint x="205" y="530" as="targetPoint" />
          </mxGeometry>
        </mxCell>
      </root>
    </mxGraphModel>
  </diagram>
</mxfile>
